<?xml version="1.0" encoding="UTF-8"?>
<svg width="51px" height="59px" viewBox="0 0 51 59" version="1.1" xmlns="http://www.w3.org/2000/svg" xmlns:xlink="http://www.w3.org/1999/xlink">
    <!-- Generator: Sketch 53.2 (72643) - https://sketchapp.com -->
    <title>Group</title>
    <desc>Created with Sketch.</desc>
    <g id="Page-1" stroke="none" stroke-width="1" fill="none" fill-rule="evenodd">
        <g id="Desktop-HD-Copy" transform="translate(-796.000000, -429.000000)">
            <g id="Group" transform="translate(796.000000, 429.000000)">
                <g id="Group-3" fill="#000000">
                    <path d="M10.75,36.0776157 L10.75,51.25 C10.75,52.4166725 10.6750007,53.4499955 10.525,54.35 C10.3749992,55.2500045 10.0916687,55.999997 9.675,56.6 C9.25833125,57.200003 8.683337,57.6583317 7.95,57.975 C7.216663,58.2916682 6.283339,58.45 5.15,58.45 C4.9166655,58.45 4.666668,58.4416667 4.4,58.425 C4.133332,58.4083332 3.900001,58.366667 3.7,58.3 L3.9,57.35 C4.3333355,57.4500005 4.749998,57.5 5.15,57.5 C6.216672,57.5 7.049997,57.3166685 7.65,56.95 C8.250003,56.5833315 8.6999985,56.1083362 9,55.525 C9.3000015,54.9416637 9.483333,54.283337 9.55,53.55 C9.616667,52.816663 9.65,52.083337 9.65,51.35 L9.65,36.2414083 C9.24871658,36.2804695 8.83204998,36.3 8.4,36.3 C6.2999895,36.3 4.516674,35.7583387 3.05,34.675 C1.583326,33.5916612 0.5666695,32.283341 -4.52970994e-14,30.75 L0.95,30.3 C1.61667,31.8000075 2.5999935,33.0083287 3.9,33.925 C5.2000065,34.8416712 6.6999915,35.3 8.4,35.3 C8.83678848,35.3 9.2534548,35.2775583 9.65,35.2326747 L9.65,23.4 L10.75,23.4 L10.75,35.0380112 C11.2178021,34.9221219 11.6511346,34.7677849 12.05,34.575 C13.050005,34.0916642 13.8666635,33.416671 14.5,32.55 C15.1333365,31.683329 15.5999985,30.6583392 15.9,29.475 C16.2000015,28.2916607 16.35,27.000007 16.35,25.6 L16.35,-7.46069873e-14 L17.45,-7.46069873e-14 L17.45,25.75 C17.45,29.016683 16.6916742,31.5916572 15.175,33.475 C14.0838621,34.8299295 12.6088705,35.6974645 10.75,36.0776157 Z M10.2,14.75 C9.8999985,14.75 9.6333345,14.6333345 9.4,14.4 C9.1666655,14.1666655 9.05,13.850002 9.05,13.45 C9.05,13.0833315 9.1666655,12.7833345 9.4,12.55 C9.6333345,12.3166655 9.8999985,12.2 10.2,12.2 C10.5000015,12.2 10.7666655,12.3166655 11,12.55 C11.2333345,12.7833345 11.35,13.0833315 11.35,13.45 C11.35,13.850002 11.2250012,14.1666655 10.975,14.4 C10.7249987,14.6333345 10.466668,14.75 10.2,14.75 Z" id="Combined-Shape"></path>
                </g>
                <text id="oga" stroke="#000000" font-family="AvenirNext-UltraLight, Avenir Next" font-size="22" font-weight="200" fill="#484545">
                    <tspan x="12" y="52">oga</tspan>
                </text>
                <text id="úlia" stroke="#000000" font-family="AvenirNext-UltraLight, Avenir Next" font-size="22" font-weight="200" fill="#484545">
                    <tspan x="18" y="33">úlia</tspan>
                </text>
            </g>
        </g>
    </g>
</svg>